<?xml version="1.0" encoding="UTF-8"?>
<svg fill="none" viewBox="0 0 24 24" xmlns="http://www.w3.org/2000/svg">
<path d="m5.4546 4c-0.79564 0-1.4546 0.65891-1.4546 1.4546v13.091c0 0.7956 0.65891 1.4545 1.4546 1.4545h13.091c0.7956 0 1.4545-0.6589 1.4545-1.4545v-13.091c0-0.79564-0.6589-1.4546-1.4545-1.4546h-13.091zm0 1.4546h13.091v13.091h-3.7731v-4.9091h1.8865l0.2727-2.1819h-2.1585v-1.4094c0-0.63565 0.1556-1.0676 1.0676-1.0676h1.1818v-1.9774c-0.2014-0.02545-0.9003-0.06836-1.704-0.06836-1.6763 0-2.8181 1.0087-2.8181 2.8865v1.6363h-1.9091v2.1819h1.9083v4.9091h-7.045v-13.091z" fill="#D59C0C"/>
</svg>
