<?xml version="1.0" encoding="UTF-8"?>
<svg fill="none" viewBox="0 0 24 24" xmlns="http://www.w3.org/2000/svg">
<path d="m12 4c-2.1748 0-2.4458 0.0105-3.2969 0.04651-0.85461 0.042-1.4327 0.17452-1.9427 0.37254-0.53384 0.20154-1.0173 0.51707-1.4167 0.92462-0.40868 0.39845-0.72439 0.88217-0.92462 1.4167-0.19802 0.51006-0.33054 1.0881-0.37254 1.9427-0.03851 0.8516-0.04651 1.1221-0.04651 3.2969 0 2.1748 0.0105 2.4458 0.04651 3.2969 0.042 0.8521 0.17452 1.4327 0.37254 1.9428 0.20154 0.5338 0.51707 1.0173 0.92462 1.4166 0.39845 0.4087 0.88217 0.7244 1.4167 0.9246 0.51006 0.1956 1.0906 0.3306 1.9427 0.3726 0.8516 0.0385 1.1221 0.0465 3.2969 0.0465 2.1748 0 2.4458-0.0105 3.2969-0.0465 0.8521-0.042 1.4327-0.1775 1.9428-0.3726 0.5338-0.2015 1.0173-0.517 1.4166-0.9246 0.4092-0.398 0.725-0.8818 0.9246-1.4166 0.1956-0.5101 0.3306-1.0907 0.3726-1.9428 0.0385-0.8516 0.0465-1.1221 0.0465-3.2969 0-2.1748-0.0105-2.4458-0.0465-3.2969-0.042-0.85211-0.1775-1.4357-0.3726-1.9427-0.2015-0.53384-0.517-1.0173-0.9246-1.4167-0.398-0.40921-0.8818-0.725-1.4166-0.92462-0.5101-0.19802-1.0907-0.33054-1.9428-0.37254-0.8516-0.03851-1.1221-0.04651-3.2969-0.04651zm0 1.4402c2.1358 0 2.3908 0.0105 3.2349 0.04651 0.7786 0.0365 1.2027 0.16652 1.4842 0.27653 0.348 0.12848 0.6631 0.33297 0.9221 0.59858 0.2652 0.25794 0.4689 0.57224 0.5961 0.91961 0.11 0.28154 0.24 0.70559 0.2765 1.4842 0.036 0.8441 0.0465 1.0996 0.0465 3.2349 0 2.1353-0.0105 2.3908-0.0495 3.2349-0.042 0.7786-0.172 1.2027-0.2815 1.4842-0.1515 0.3755-0.3206 0.6381-0.5996 0.9221-0.2599 0.2639-0.5747 0.4675-0.9221 0.5961-0.278 0.11-0.7081 0.24-1.4897 0.2765-0.8486 0.036-1.0986 0.0465-3.2399 0.0465-2.1413 0-2.3908-0.0105-3.2404-0.0495-0.7786-0.042-1.2082-0.172-1.4897-0.2815-0.38005-0.1515-0.64058-0.3206-0.91962-0.5996-0.28153-0.2815-0.46056-0.5496-0.59857-0.9221-0.11202-0.278-0.24003-0.7081-0.28154-1.4897-0.0285-0.8386-0.042-1.0986-0.042-3.2299 0-2.1303 0.0135-2.3908 0.042-3.2399 0.04151-0.78159 0.16952-1.2106 0.28154-1.4897 0.13801-0.38055 0.31754-0.64058 0.59857-0.92212 0.27854-0.27853 0.53957-0.45856 0.91962-0.59957 0.28153-0.10952 0.70058-0.23953 1.4822-0.27854 0.84861-0.0305 1.0986-0.0415 3.2369-0.0415l0.033 0.023zm0 2.4538c-0.5394-2e-4 -1.0735 0.1059-1.5719 0.31222-0.49839 0.20633-0.95123 0.50884-1.3326 0.89025s-0.68392 0.83425-0.89025 1.3326c-0.20632 0.4984-0.31242 1.0325-0.31222 1.5719-2e-4 0.5394 0.1059 1.0735 0.31222 1.5719 0.20633 0.4984 0.50884 0.9512 0.89025 1.3326s0.83425 0.684 1.3326 0.8903c0.4984 0.2063 1.0325 0.3124 1.5719 0.3122 0.5394 2e-4 1.0735-0.1059 1.5719-0.3122s0.9512-0.5089 1.3326-0.8903 0.684-0.8342 0.8903-1.3326 0.3124-1.0325 0.3122-1.5719c2e-4 -0.5394-0.1059-1.0735-0.3122-1.5719-0.2063-0.49839-0.5089-0.95123-0.8903-1.3326s-0.8342-0.68392-1.3326-0.89025c-0.4984-0.20632-1.0325-0.31242-1.5719-0.31222zm0 6.7738c-1.4742 0-2.6668-1.1926-2.6668-2.6668s1.1926-2.6668 2.6668-2.6668 2.6668 1.1926 2.6668 2.6668-1.1926 2.6668-2.6668 2.6668zm5.2327-6.9378c-3e-4 0.25486-0.1017 0.4992-0.2821 0.67932-0.1803 0.18012-0.4247 0.2813-0.6796 0.2813-0.126 0-0.2508-0.02482-0.3672-0.07305s-0.2222-0.11891-0.3113-0.20802-0.1598-0.1949-0.208-0.31132c-0.0483-0.11643-0.0731-0.24121-0.0731-0.36723s0.0248-0.25081 0.0731-0.36723c0.0482-0.11643 0.1189-0.22222 0.208-0.31133s0.1949-0.15979 0.3113-0.20802c0.1164-0.04822 0.2412-0.07304 0.3672-0.07304 0.5286 0 0.9617 0.43005 0.9617 0.95862z" fill="#D59C0C"/>
</svg>
