<?xml version="1.0" encoding="UTF-8"?>
<svg fill="none" viewBox="0 0 36 64" xmlns="http://www.w3.org/2000/svg">
<path d="m33.484 5.1694v-5.1694h-6.1935v8.2581h-2.0646v-8.2581h-6.1935v8.2581h-2.0645v-8.2581h-6.1936v8.2581h-2.0645v-8.2581h-6.1935v5.1694c-1.1447 0.04688-2.0645 0.98488-2.0645 2.1411v9.2056c0 1.3438 0.86593 2.4794 2.0645 2.9068v6.561c0 0.8271 0.32207 1.6053 0.90725 2.1905l2.9738 2.9738c0.17793 0.1779 0.28428 0.4133 0.30041 0.6638l1.8891 29.292c0.10534 1.624 1.4637 2.8957 3.0908 2.8957h12.645c1.627 0 2.9854-1.2717 3.0907-2.8977l1.8892-29.291c0.0161-0.2505 0.1224-0.4859 0.3004-0.6638l2.9738-2.9738c0.5851-0.5842 0.9072-1.3624 0.9072-2.1905v-6.561c1.1986-0.4274 2.0645-1.563 2.0645-2.9068v-9.2046c0-1.1552-0.9198-2.0942-2.0645-2.1411zm-26.839-3.1048v8.2581h6.1936v-8.2581h2.0645v8.2581h6.1935v-8.2581h2.0645v8.2581h6.1936v-8.2581h2.0645v4.4234c-0.062 0.1497-0.1134 0.30444-0.1416 0.47077l-1.0766 6.4607h-24.402l-1.0766-6.4607c-0.02822-0.16633-0.07963-0.32107-0.14163-0.47077v-4.4234h2.0645zm24.472 24.649-2.9738 2.9738c-0.5328 0.5328-0.8528 1.2399-0.9012 1.9904l-1.8891 29.291c-0.0353 0.5418-0.4884 0.9662-1.0303 0.9662h-12.645c-0.5419 0-0.995-0.4244-1.0303-0.9662l-1.8891-29.291c-0.04839-0.7515-0.36945-1.4576-0.90121-1.9904l-2.9738-2.9738c-0.19506-0.1951-0.30242-0.4551-0.30242-0.7308v-6.37h7.2258v32c0 1.7072 1.3896 3.0968 3.0968 3.0968h6.1935c1.7072 0 3.0968-1.3896 3.0968-3.0968v-32h7.2258v6.37c0 0.2757-0.1074 0.5357-0.3024 0.7308zm-17.246-7.1008h8.2581v32c0 0.5685-0.4627 1.0323-1.0323 1.0323h-6.1935c-0.5696 0-1.0323-0.4638-1.0323-1.0323v-32zm19.613-3.0968c0 0.5686-0.4627 1.0323-1.0322 1.0323h-28.903c-0.56955 0-1.0322-0.4637-1.0322-1.0323v-9.2046c0-0.04738 0.0383-0.08568 0.08568-0.08568 0.04133 0 0.07661 0.02973 0.08367 0.07107l1.3644 8.187h27.899l1.3644-8.187c0.0157-0.08871 0.1684-0.0741 0.1694 0.01461l1e-3 9.2046z" fill="#D59C0C"/>
</svg>
