<?xml version="1.0" encoding="UTF-8"?>
<svg viewBox="0 0 64 64" xmlns="http://www.w3.org/2000/svg">
<path d="m55.742 16.516h-2.0645v-4.129h-4.129v-4.129h9.2903v-6.1935h-10.079l-4.1291-2.0645h-2.3079c-2.2772 0-4.1291 1.8518-4.1291 4.129s1.8519 4.129 4.1291 4.129h1.0322v4.129h-4.129v4.129h-2.0645c-2.8458 0-5.1613 2.3156-5.1613 5.1613v37.161c0 2.8458 2.3155 5.1613 5.1613 5.1613h18.581c2.8458 0 5.1613-2.3155 5.1613-5.1613v-37.161c0-2.8457-2.3155-5.1613-5.1613-5.1613zm-15.484-12.387c0-1.1386 0.9259-2.0645 2.0645-2.0645h1.821l4.1291 2.0645h8.5015v2.0645h-14.452c-1.1386 0-2.0645-0.92591-2.0645-2.0645zm5.1613 4.129h2.0645v4.129h-2.0645v-4.129zm-4.1291 6.1935h10.323v2.0645h-10.323v-2.0645zm-4.129 4.129h18.581c1.7072 0 3.0968 1.3897 3.0968 3.0968v4.129h-24.774v-4.129c0-1.7071 1.3896-3.0968 3.0968-3.0968zm21.677 9.2904v25.806h-24.774v-25.806h24.774zm-3.0968 34.064h-18.581c-1.7072 0-3.0968-1.3896-3.0968-3.0968v-3.0968h24.774v3.0968c0 1.7072-1.3896 3.0968-3.0968 3.0968z" fill="#D59C0C"/>
<path d="m39.226 49.548h13.419c2.561 0 4.6452-2.0842 4.6452-4.6452 0-2.2268-1.5761-4.0887-3.6699-4.5378-0.2711-2.5705-1.6577-4.9002-3.8377-6.3523l-3.9773-2.6512-0.8074 3.2304c-0.2828 1.132-1.0983 2.0675-2.183 2.5-2.1799 0.8709-3.5892 2.9521-3.5892 5.3004v0.9622c-1.7072 0-3.0968 1.3896-3.0968 3.0967 0 1.7072 1.3896 3.0968 3.0968 3.0968zm0-4.129h6.1935v-2.0645h-4.129v-0.9622c0-1.4995 0.9002-2.8282 2.2918-3.3846 1.6981-0.6784 2.9758-2.1432 3.4189-3.9174l0.0968-0.3871 1.5393 1.0258c1.572 1.0478 2.6013 2.6945 2.8861 4.5287h-4.0394v2.0645h5.1613c1.4224 0 2.5807 1.1573 2.5807 2.5806 0 1.4234-1.1583 2.5807-2.5807 2.5807h-13.419c-0.5686 0-1.0323-0.4627-1.0323-1.0323 0-0.5695 0.4637-1.0322 1.0323-1.0322z" fill="#D59C0C"/>
<path d="m25.806 12.491v-4.2333h-3.0968v-6.1935c0-1.1386-0.9259-2.0645-2.0645-2.0645h-8.2581c-1.1386 0-2.0645 0.92591-2.0645 2.0645v6.1935h-3.0968v4.2333c-2.3523 0.4799-4.129 2.5651-4.129 5.057v41.29c0 2.8458 2.3155 5.1613 5.1613 5.1613h16.516c2.8458 0 5.1613-2.3155 5.1613-5.1613v-41.29c0-2.4919-1.7767-4.5771-4.129-5.057zm-2.0646-0.1043h-2.0645v-2.0645h2.0645v2.0645zm-8.258-2.0645v2.0645h-2.0645v-2.0645h2.0645zm2.0645 0h2.0645v2.0645h-2.0645v-2.0645zm-5.1613-8.2581h8.2581v6.1935h-8.2581v-6.1935zm-1.0323 8.2581v2.0645h-2.0645v-2.0645h2.0645zm-3.0967 4.129h16.516c1.7072 0 3.0968 1.3896 3.0968 3.0968v6.1935h-22.71v-6.1935c0-1.7072 1.3896-3.0968 3.0968-3.0968zm19.613 11.355v23.742h-22.71v-23.742h22.71zm-3.0968 36.129h-16.516c-1.7072 0-3.0968-1.3896-3.0968-3.0968v-7.2258h22.71v7.2258c0 1.7072-1.3896 3.0968-3.0968 3.0968z" fill="#D59C0C"/>
<path d="m15.484 4.1289h2.0645v2.0645h-2.0645v-2.0645z" fill="#D59C0C"/>
<path d="m16.365 47.484h0.3014c3.3321 0 6.0428-2.7107 6.0428-6.0429 0-0.9329-0.2208-1.8684-0.6381-2.7026l-5.5554-11.111-5.5555 11.111c-0.4173 0.8342-0.6381 1.7687-0.6381 2.7026 0 3.3322 2.7107 6.0429 6.0429 6.0429zm-3.558-7.8226 3.7087-7.4178 3.7086 7.4178c0.2747 0.5494 0.4204 1.1653 0.4204 1.7797 0 2.1936-1.7848 3.9784-3.9783 3.9784h-0.3014c-2.1936 0-3.9784-1.7848-3.9784-3.9784 0-0.6144 0.1457-1.2303 0.4204-1.7797z" fill="#D59C0C"/>
<path d="m19.613 41.29h-2.0645c0 0.5696-0.4637 1.0323-1.0323 1.0323v2.0645c1.7072 0 3.0968-1.3896 3.0968-3.0968z" fill="#D59C0C"/>
</svg>
