<?xml version="1.0" encoding="UTF-8"?>
<svg fill="none" viewBox="0 0 30 64" xmlns="http://www.w3.org/2000/svg">
<path d="m28.393 14.452h0.0267v-11.355c0-1.7072-1.3896-3.0968-3.0968-3.0968h-16.516c-1.7072 0-3.0968 1.3896-3.0968 3.0968v11.355h0.02671c-0.45614 0.6028-0.79788 1.2974-0.95362 2.0645h-1.1376c-1.7072 0-3.0968 1.3896-3.0968 3.0968v8.2581c0 1.7071 1.3896 3.0967 3.0968 3.0967h1.0983c0.14667 1.12 0.63407 2.1593 1.4451 2.9708l1.7107 1.7107c0.57711 0.5771 0.90726 1.375 0.90726 2.1905v14.806c0 0.9112 0.40373 1.7237 1.0322 2.2918v1.8372c0 2.4919 1.7767 4.5771 4.129 5.0569v0.1044c0 1.1386 0.9259 2.0645 2.0645 2.0645h2.0645c1.1386 0 2.0645-0.9259 2.0645-2.0645v-0.1044c2.3524-0.4798 4.1291-2.564 4.1291-5.0569v-1.8372c0.6285-0.567 1.0322-1.3806 1.0322-2.2918v-14.806c0-0.8155 0.3302-1.6124 0.9063-2.1895l1.7107-1.7107c0.9753-0.9753 1.5121-2.2707 1.5121-3.6502v-12.741c0-1.1663-0.4038-2.2319-1.059-3.0968zm-2.0378-11.355v9.7278c-0.0434-0.0187-0.0867-0.0358-0.13-0.0534l-1.1286-4.5131h-0.8059v-6.1935h1.0322c0.5686 0 1.0323 0.46371 1.0323 1.0322zm-6.1936 5.1613v-6.1935h2.0646v6.1935h-2.0646zm-2.0645 0h-2.0645v-6.1935h2.0645v6.1935zm-4.129 0h-2.0645v-6.1935h2.0645v6.1935zm-3.3231 2.0645h12.84l0.5162 2.0645h-13.872l0.5161-2.0645zm-1.8382-8.2581h1.0322v6.1935h-0.80594l-1.1285 4.5131c-0.04335 0.0176-0.0867 0.0347-0.13004 0.0534v-9.7278c0-0.56854 0.46371-1.0322 1.0323-1.0322zm-6.1936 25.806v-8.2581c0-0.5685 0.46371-1.0323 1.0322-1.0323h1.0323v10.323h-1.0323c-0.56854 0-1.0322-0.4637-1.0322-1.0322zm6.747 6.3195-1.7107-1.7107c-0.57712-0.5771-0.90726-1.375-0.90726-2.1905v-12.741c0-1.7072 1.3896-3.0968 3.0968-3.0968h14.452c1.7071 0 3.0968 1.3896 3.0968 3.0968v5.1613h-6.7984c-0.5514 0-1.0696 0.2147-1.4597 0.6048l-2.4919 2.4919c-0.3902 0.3902-0.6049 0.9083-0.6049 1.4597v20.218c0 1.1386 0.9259 2.0645 2.0645 2.0645h5.1613v3.0968c0 0.5685-0.4637 1.0322-1.0322 1.0322h-10.323c-0.5686 0-1.0323-0.4637-1.0323-1.0322v-14.806c0-1.3795-0.5368-2.6749-1.5111-3.6492zm2.5434 22.584v-1.0323h2.0645v3.939c-1.1986-0.4274-2.0645-1.563-2.0645-2.9067zm4.129 5.1613v-6.1936h2.0645v6.1936h-2.0645zm6.1936-5.1613c0 1.3437-0.866 2.4793-2.0646 2.9067v-3.939h2.0646v1.0323zm2.5433-22.584c-0.2767 0.2767-0.5075 0.5842-0.7112 0.9063h-3.8967v2.0645h3.1629c-0.0288 0.2248-0.0661 0.4481-0.0661 0.6784v1.3861h-3.0968v2.0645h3.0968v2.0645h-3.0968v2.0646h3.0968v2.0645h-5.1613v-20.218l2.492-2.4919h6.7984v2.0645h-7.2259v2.0645h7.2259v1.3861c0 0.2293-0.0318 0.4557-0.0827 0.6784h-7.1432v2.0646h5.7662l-1.1583 1.1582z" fill="#D59C0C"/>
</svg>
