<?xml version="1.0" encoding="UTF-8"?>
<svg viewBox="0 0 64 64" xmlns="http://www.w3.org/2000/svg">
<path d="m59.871 8.774v-4.129h-55.742v4.129h-4.129v44.387h24.847c0.502 3.4975 3.5181 6.1936 7.1527 6.1936s6.6497-2.6961 7.1527-6.1936h24.847v-44.387h-4.129zm-2.0646-2.0645v40.258h-24.774v-40.258h24.774zm-51.613 0h24.774v40.258h-24.774v-40.258zm55.742 44.387h-24.774v1.0323c0 2.8458-2.3155 5.1613-5.1613 5.1613s-5.1613-2.3155-5.1613-5.1613v-1.0323h-24.774v-40.258h2.0645v38.194h55.742v-38.194h2.0645v40.258z" fill="#D59C0C"/>
<path d="m18.581 8.7744c-5.692 0-10.323 4.6306-10.323 10.323v5.1613c0 2.1593 1.6724 3.9173 3.7873 4.0947 1.1552 2.4552 3.6471 4.1634 6.5352 4.1634s5.3801-1.7082 6.5353-4.1634c2.1149-0.1774 3.7873-1.9354 3.7873-4.0947v-5.1613c0-5.692-4.6305-10.323-10.323-10.323zm0 2.0645c4.5535 0 8.2581 3.7047 8.2581 8.2581v1.6063c-0.3201-0.1869-0.6648-0.3326-1.0323-0.4274v-1.1789h-4.129c-2.8911 0-5.757 0.7898-8.2581 2.2308v-2.2308h-2.0645v1.1789c-0.3674 0.0958-0.7122 0.2405-1.0322 0.4274v-1.6063c0-4.5534 3.7046-8.2581 8.258-8.2581zm-8.258 13.419c0-0.7606 0.4178-1.4194 1.0322-1.7777v2.8099c0 0.2591 0.0157 0.5152 0.0424 0.7682-0.6371-0.3523-1.0746-1.0222-1.0746-1.8004zm8.258 6.1935c-2.8457 0-5.1613-2.3155-5.1613-5.1613v-1.5226c2.4113-1.6775 5.3191-2.6064 8.2581-2.6064h2.0645v4.129c0 2.8458-2.3155 5.1613-5.1613 5.1613zm7.1835-4.3931c0.0267-0.253 0.0423-0.5091 0.0423-0.7682v-2.8099c0.6145 0.3583 1.0323 1.0171 1.0323 1.7777 0 0.7782-0.4375 1.4481-1.0746 1.8004z" fill="#D59C0C"/>
<path d="m38.884 40.907c1.1562 2.4557 3.6472 4.1633 6.5353 4.1633s5.379-1.7086 6.5352-4.1633c2.115-0.1774 3.7873-1.9344 3.7873-4.0947v-7.3932c0-5.1219-4.1673-9.2903-9.2903-9.2903-2.9088 0-5.6875 1.3896-7.4324 3.7172l-0.4365 0.5812c-2.0983 0.8422-3.4859 2.875-3.4859 5.1593v7.2258c0 2.1603 1.6724 3.9173 3.7873 4.0947zm-1.7228-4.0947c0-0.7611 0.4178-1.4194 1.0323-1.7777v2.8099c0 0.2591 0.0156 0.5152 0.0423 0.7677-0.6371-0.3518-1.0746-1.0227-1.0746-1.7999zm8.2581 6.1935c-2.8458 0-5.1613-2.3155-5.1613-5.1613v-4.132c1.193 0.6718 2.5433 1.0353 3.9516 1.0353h0.1774v-0.5484c0.9199 0.3563 1.9037 0.5484 2.9194 0.5484h0.1774v-0.5484c0.9198 0.3563 1.9037 0.5484 2.9193 0.5484h0.1775v3.0967c0 2.8458-2.3156 5.1613-5.1613 5.1613zm7.1834-4.3936c0.0267-0.2525 0.0424-0.5086 0.0424-0.7677v-2.8099c0.6144 0.3583 1.0322 1.0166 1.0322 1.7777 0 0.7772-0.4375 1.4481-1.0746 1.7999zm-13.051-12.342 0.3055-0.1023 0.8125-1.0842c1.3583-1.8094 3.5191-2.8901 5.7817-2.8901 3.9834 0 7.2258 3.2415 7.2258 7.2258v3.8377c-0.32-0.1865-0.6648-0.3321-1.0322-0.4269v-2.3785h-2.0645v2.2318h-0.1775c-1.6073 0-3.1184-0.6255-4.254-1.7621l-1.255 1.2551c-0.6775-0.2974-1.303-0.7162-1.8418-1.2551l-1.255 1.2551c-0.5555-0.2435-1.0726-0.5736-1.5393-0.9804v-0.7444h-2.0645v2.3785c-0.3675 0.0948-0.7122 0.2404-1.0323 0.4269v-3.6703c0-1.5071 0.9612-2.8408 2.3906-3.3166z" fill="#D59C0C"/>
<path d="m8.2581 34.581h20.645v2.0645h-20.645v-2.0645z" fill="#D59C0C"/>
<path d="m19.613 38.71h9.2903v2.0645h-9.2903v-2.0645z" fill="#D59C0C"/>
<path d="m8.2581 38.71h9.2903v2.0645h-9.2903v-2.0645z" fill="#D59C0C"/>
<path d="m35.097 8.7744h20.645v2.0645h-20.645v-2.0645z" fill="#D59C0C"/>
<path d="m35.097 17.032h20.645v2.0645h-20.645v-2.0645z" fill="#D59C0C"/>
<path d="m46.452 12.903h9.2903v2.0645h-9.2903v-2.0645z" fill="#D59C0C"/>
<path d="m35.097 12.903h9.2903v2.0645h-9.2903v-2.0645z" fill="#D59C0C"/>
<path d="m8.2581 42.839h20.645v2.0645h-20.645v-2.0645z" fill="#D59C0C"/>
</svg>
