<?xml version="1.0" encoding="UTF-8"?>
<svg fill="none" viewBox="0 0 56 64" xmlns="http://www.w3.org/2000/svg">
<path d="m55.071 20.367-2.87-3.5862c-0.6593-0.8245-1.6441-1.2973-2.7621-1.2973-0.7691 0-1.5267 0.2611-2.1315 0.7349l-22.138 17.326c-0.8523 0.6678-1.3417 1.6713-1.3417 2.753 0 0.7908 0.2727 1.567 0.7661 2.1839l0.9496 1.1865-12.451 9.1744c-1.0892-5.5423-1.6517-11.18-1.6517-16.842 0-8.125 1.1326-16.203 3.3639-24.014l0.5867-2.0549c0.1185-0.41835 0.1784-0.84778 0.1784-1.2772 0-2.567-2.0871-4.6542-4.7152-4.6542-1.9294 0-3.6799 1.2137-4.3573 3.0182l-0.19305 0.51008c-1.3604 3.6316-2.4637 7.3942-3.2752 11.183l-0.15826 0.7389c-1.1633 5.4289-1.7525 10.996-1.7525 16.549s0.58921 11.12 1.7525 16.549l0.15826 0.7389c0.57914 2.7036 1.312 5.3916 2.1759 8.0297-1.9456 1.3876-3.6169 3.0827-4.9466 5.0767l1.7177 1.1451c1.0766-1.6144 2.4062-3.007 3.935-4.1799 0.13206 0.3704 0.25605 0.7444 0.39314 1.1119l0.19103 0.507c0.67843 1.8075 2.4289 3.0212 4.4204 3.0212 2.5671 0 4.6542-2.0872 4.6542-4.6542 0-0.4305-0.0599-0.8599-0.1784-1.2793l-0.5867-2.0529c-0.0781-0.2737-0.1441-0.5494-0.2197-0.8241l39.859-29.894c0.867-0.6492 1.3841-1.6835 1.3841-2.7662 0-0.7827-0.2696-1.5494-0.7565-2.1618zm-44.217 41.568c-1.0736 0-2.0468-0.6749-2.4259-1.6815l-0.19103-0.507c-1.3256-3.5363-2.3992-7.2011-3.1905-10.891l-0.15827-0.7394c-0.48185-2.253-0.84123-4.5342-1.12-6.8261h3.5428v-2.0645h-3.7696c-0.06502-0.6875-0.11795-1.376-0.16432-2.0645h3.934v-2.0645h-4.0474c-0.02823-0.6885-0.04537-1.376-0.05494-2.0645h4.1023v-2.0646h-4.1023c0.00957-0.6885 0.02671-1.376 0.05494-2.0645h4.0474v-2.0645h-3.934c0.04637-0.6885 0.0993-1.377 0.16432-2.0645h3.7696v-2.0645h-3.5428c0.27873-2.2919 0.63811-4.5731 1.121-6.8261l0.15827-0.7394c0.79183-3.6901 1.8649-7.3549 3.1895-10.889l0.19305-0.51008c0.3755-1.0055 1.3503-1.6804 2.4849-1.6804 1.4284 0 2.5897 1.1613 2.5897 2.5897 0 0.23992-0.0332 0.47934-0.1003 0.7117l-0.5862 2.0529c-2.2842 7.995-3.4425 16.265-3.4425 24.581s1.1583 16.586 3.4425 24.581l0.5862 2.051c0.0671 0.2343 0.1003 0.4737 0.1003 0.7137 0 1.4284-1.1613 2.5897-2.6507 2.5897zm42.351-38.292-39.194 29.396c-0.1633-0.6562-0.308-1.316-0.4546-1.9758l14.94-11.008-2.2914-2.8649c-0.2026-0.2525-0.314-0.5705-0.314-0.8936 0-0.4431 0.2001-0.8539 0.5494-1.1275l22.137-17.325c0.5232-0.4108 1.5111-0.3957 2.0096 0.2268l1.0912 1.3639-22.002 16.908 1.2586 1.637 22.033-16.933 0.4885 0.6099c0.197 0.2459 0.3054 0.5554 0.3054 0.8714 0 0.4365-0.2087 0.8524-0.5575 1.1144z" fill="#D59C0C"/>
</svg>
