<?xml version="1.0" encoding="UTF-8"?>
<svg fill="none" viewBox="0 0 64 64" xmlns="http://www.w3.org/2000/svg">
<path d="m64 18.581h-2.0645v1.5772c0 2.1885-0.3997 4.378-1.1583 6.4329-1.8518-1.7596-4.3488-2.8488-7.0998-2.8488-3.1835 0-6.0327 1.4501-7.9279 3.7223l-11.151-1.5927c-0.2551-0.2934-0.5368-0.5615-0.8423-0.8019l-25.071-25.07h-8.6855v8.6855l25.071 25.071c0.4848 0.616 1.0826 1.1361 1.7641 1.5328l-0.0167 3e-3 2.115 11c-1.9249 1.8755-3.1266 4.491-3.1266 7.3856 0 5.6921 4.6306 10.323 10.323 10.323 5.6921 0 10.323-4.6305 10.323-10.323 0-5.6184-4.5161-10.196-10.108-10.311l-1.7344-7.7888 3.7202-1.4874 5.0585 0.6321c0.3412 5.3851 4.8196 9.6648 10.289 9.6648 5.6921 0 10.323-4.6306 10.323-10.323 0-2.1008-0.6336-4.0534-1.7157-5.6855 1.123-2.5852 1.7157-5.4042 1.7157-8.2212v-1.5772zm-34.064 15.484c-2.2772 0-4.1291-1.8518-4.1291-4.129s1.8519-4.1291 4.1291-4.1291 4.129 1.8519 4.129 4.1291-1.8518 4.129-4.129 4.129zm-0.4068-10.302c-1.1789 0.0776-2.2676 0.4829-3.1764 1.1305l-22.828-22.829h4.3065l21.698 21.698zm-27.464-20.238 22.829 22.828c-0.6476 0.9088-1.0529 1.9975-1.1305 3.1764l-21.698-21.698v-4.3065zm27.004 32.537c0.2838 0.0403 0.5716 0.068 0.867 0.068 0.9123 0 1.7757-0.2031 2.5569-0.5584l1.7722 7.9617c-1.2631 0.2313-2.442 0.696-3.5015 1.3442l-1.6946-8.8155zm15.319 17.616c0 4.5534-3.7046 8.2581-8.2581 8.2581-4.5534 0-8.258-3.7047-8.258-8.2581s3.7046-8.258 8.258-8.258c4.5535 0 8.2581 3.7046 8.2581 8.258zm-6.3296-21.702-2.806 1.122c0.5534-0.9269 0.8775-2.0056 0.8775-3.1618 0-0.6245-0.0947-1.2283-0.2681-1.7974l8.6336 1.2339c-0.5182 1.0085-0.8715 2.1129-1.0313 3.2792l-5.4057-0.6759zm15.62 10.347c-4.5534 0-8.258-3.7047-8.258-8.2581s3.7046-8.2581 8.258-8.2581 8.2581 3.7047 8.2581 8.2581-3.7047 8.2581-8.2581 8.2581z" fill="#D59C0C"/>
</svg>
