<?xml version="1.0" encoding="UTF-8"?>
<svg fill="none" viewBox="0 0 64 64" xmlns="http://www.w3.org/2000/svg">
<g clip-path="url(#a)" fill="#D59C0C">
<path d="m61.936 27.871h-3.0968v-1.0323c0-1.1386-0.9259-2.0645-2.0645-2.0645h-10.323c-1.1386 0-2.0645 0.9259-2.0645 2.0645v1.0323h-3.0968c-1.1386 0-2.0645 0.9259-2.0645 2.0645v28.903c0 1.1386 0.9259 2.0645 2.0645 2.0645h3.0968v1.0323c0 1.1386 0.9259 2.0645 2.0645 2.0645h10.323c1.1386 0 2.0645-0.9259 2.0645-2.0645v-1.0323h3.0968c1.1386 0 2.0645-0.9259 2.0645-2.0645v-28.903c0-1.1386-0.9259-2.0645-2.0645-2.0645zm0 30.968h-5.1613v3.0968h-10.323v-3.0968h-5.1613v-28.903h5.1613v-3.0968h10.323v3.0968h5.1613v28.903z"/>
<path d="m48.516 33.032h2.0645v3.0968h-2.0645v2.0645h2.0645v3.2868c-1.1986 0.4274-2.0645 1.563-2.0645 2.9067 0 1.3438 0.8659 2.4794 2.0645 2.9068v3.2868h-2.0645v2.0645h2.0645v3.0968h-2.0645v2.0645h6.1936v-2.0645h-2.0646v-3.0968h2.0646v-2.0645h-2.0646v-3.2868c1.1986-0.4274 2.0646-1.563 2.0646-2.9068 0-1.3437-0.866-2.4793-2.0646-2.9067v-3.2868h2.0646v-2.0645h-2.0646v-3.0968h2.0646v-2.0645h-6.1936v2.0645zm3.0968 12.387c-0.5696 0-1.0323-0.4627-1.0323-1.0323 0-0.5695 0.4627-1.0322 1.0323-1.0322 0.5695 0 1.0322 0.4627 1.0322 1.0322 0 0.5696-0.4627 1.0323-1.0322 1.0323z"/>
<path d="m43.355 34.064h2.0646v2.0645h-2.0646v-2.0645z"/>
<path d="m43.355 38.193h2.0646v12.387h-2.0646v-12.387z"/>
<path d="m43.355 52.645h2.0646v2.0645h-2.0646v-2.0645z"/>
<path d="m57.806 34.064h2.0645v2.0645h-2.0645v-2.0645z"/>
<path d="m57.806 38.193h2.0645v12.387h-2.0645v-12.387z"/>
<path d="m57.806 52.645h2.0645v2.0645h-2.0645v-2.0645z"/>
<path d="m41.29 13.419v-10.323c0-1.7072-1.3896-3.0968-3.0968-3.0968h-35.097c-1.7072 0-3.0968 1.3896-3.0968 3.0968v10.323c0 1.7071 1.3896 3.0967 3.0968 3.0967h5.1613v1.0323c0 1.7071 1.3896 3.0968 3.0967 3.0968h5.1613v41.29c0 1.1386 0.9259 2.0645 2.0645 2.0645h4.1291c1.1386 0 2.0645-0.9259 2.0645-2.0645v-41.29h5.1613c1.7071 0 3.0968-1.3897 3.0968-3.0968v-1.0323h5.1612c1.7072 0 3.0968-1.3896 3.0968-3.0967zm-38.194-4.1291-0.26512-0.00101c-0.25605-0.00403-0.5131 0-0.76713 0.01664v-1.0479c0-0.56955 0.4627-1.0322 1.0322-1.0322h7.2258v2.0645h-7.2258zm9.2903-2.0645h7.2258v2.0645h-7.2258v-2.0645zm9.2903 0h8.2581v2.0635h-8.2581v-2.0635zm10.323 0h6.1935c0.5696 0 1.0323 0.4627 1.0323 1.0322v1.0499c-0.255-0.01663-0.5121-0.02167-0.7671-0.01865h-6.4587v-2.0635zm-28.903-5.1613h35.097c0.5696 0 1.0323 0.4627 1.0323 1.0322v2.2545c-0.3241-0.11593-0.6688-0.19002-1.0323-0.19002h-35.097c-0.3634 0-0.70816 0.07409-1.0322 0.19002v-2.2545c0-0.56955 0.4627-1.0322 1.0322-1.0322zm-1.0322 11.355v-2.0459c0.19405-0.0227 0.51814-0.0217 0.75151-0.0197l35.377 1e-3 0.2808-1e-3c0.2324-2e-3 0.5564-4e-3 0.7515 0.0197v2.0459c0 0.5695-0.4627 1.0322-1.0323 1.0322h-35.097c-0.56955 0-1.0322-0.4627-1.0322-1.0322zm16.516 38.194h4.1291v2.0645h-4.1291v-2.0645zm0-2.0645v-2.0645h4.1291v2.0645h-4.1291zm0-4.129v-13.419h4.1291v13.419h-4.1291zm0-15.484v-2.0645h4.1291v2.0645h-4.1291zm0-4.1291v-2.0645h4.1291v2.0645h-4.1291zm0 36.129v-6.1936h4.1291v6.1936h-4.1291zm4.1291-40.258h-4.1291v-1.0322h4.1291v1.0322zm8.258-4.129c0 0.5695-0.4627 1.0322-1.0322 1.0322h-18.581c-0.5695 0-1.0322-0.4627-1.0322-1.0322v-1.0323h20.645v1.0323z"/>
</g>
<defs>
<clipPath id="a">
<rect width="64" height="64" fill="#fff"/>
</clipPath>
</defs>
</svg>
