<?xml version="1.0" encoding="UTF-8"?>
<svg fill="none" viewBox="0 0 64 64" xmlns="http://www.w3.org/2000/svg">
<g clip-path="url(#a)" fill="#D59C0C">
<path d="m27.892 0h-17.538v3.9297l10.552 2.2603h-10.552v2.0634h14.444v2.0634h-14.444v2.0633h14.444v2.0634h-14.444v2.0633h14.444v2.0634h-14.444v2.0633h14.444v2.0634h-14.444v2.0633h14.444v2.0634h-14.444v2.0633h14.444v2.0634h-14.444v2.0633h14.444v2.0634h-14.444v2.0633h14.444v2.0634h-14.444v2.0633h14.444v2.0634h-14.444v2.0633h14.444v2.0634h-14.444v2.0633h14.444v2.0634h-14.444v2.0633h14.444v2.0634h-14.444v2.0633h10.55l-10.55 2.2604v3.9297h17.538c2.8442 0 5.1584-2.3142 5.1584-5.1584v-53.647c0-2.8442-2.3142-5.1584-5.1584-5.1584zm3.095 58.806c0 1.7062-1.3888 3.095-3.095 3.095h-15.475v-0.1969l11.997-2.5712c1.4176-0.3042 2.4462-1.5772 2.4462-3.027v-48.247c0-1.4498-1.0286-2.7228-2.4462-3.027l-11.997-2.5711v-0.19697h15.475c1.7062 0 3.095 1.3888 3.095 3.095v53.647z"/>
<path d="m50.588 0h-10.317c-1.7067 0-3.095 1.3888-3.095 3.095v0.92337l9.2851 1.0317v1.14h-9.2851v2.0634h9.2851v2.0634h-9.2851v2.0633h9.2851v2.0634h-9.2851v2.0633h9.2851v2.0634h-9.2851v2.0633h9.2851v2.0634h-9.2851v2.0633h9.2851v2.0634h-9.2851v2.0633h9.2851v1.14l-9.2851 1.0317v0.9233c0 1.7062 1.3883 3.0951 3.095 3.0951h6.2601l1.8871 26.476c0.1002 1.3832 1.2482 2.4472 2.6275 2.4472 0.0207 0 0.0413 0 0.062-1e-3 1.4195-0.0323 2.5751-1.2146 2.5751-2.6351v-58.269c0-1.7062-1.3888-3.095-3.095-3.095zm1.0317 61.364c0 0.3082-0.2509 0.5652-0.5582 0.5727-0.3052-0.0247-0.5622-0.2262-0.5848-0.5314l-2.0221-28.392h-8.1834c-0.2035 0-0.3939-0.0599-0.5531-0.1607l8.8066-0.9793v-28.67l-8.8066-0.97928c0.1592-0.10075 0.3496-0.1607 0.5531-0.1607h10.317c0.5692 0 1.0317 0.46345 1.0317 1.0317v58.269z"/>
</g>
<defs>
<clipPath id="a">
<rect width="64" height="64" fill="#fff"/>
</clipPath>
</defs>
</svg>
